HIERARCHY
ROOT Hips
{
	OFFSET 0.717293 88.513641 3.606412
	CHANNELS 6 Xposition Yposition Zposition Zrotation Yrotation Xrotation 
	JOINT Spine
	{
		OFFSET -0.000000 8.814246 -2.080107
		CHANNELS 3 Zrotation Yrotation Xrotation
		JOINT Spine1
		{
			OFFSET -0.000000 8.844141 -0.000000
			CHANNELS 3 Zrotation Yrotation Xrotation
			JOINT Spine2
			{
				OFFSET 0.000000 11.682268 0.000000
				CHANNELS 3 Zrotation Yrotation Xrotation
				JOINT Spine3
				{
					OFFSET 0.000000 11.746700 -0.000000
					CHANNELS 3 Zrotation Yrotation Xrotation
					JOINT Neck
					{
						OFFSET 0.000000 17.658264 0.000000
						CHANNELS 3 Zrotation Yrotation Xrotation
						JOINT Neck1
						{
							OFFSET -0.000000 5.101515 -0.000000
							CHANNELS 3 Zrotation Yrotation Xrotation
							JOINT Head
							{
								OFFSET -0.000000 5.101515 -0.000000
								CHANNELS 3 Zrotation Yrotation Xrotation
								JOINT HeadEnd
								{
									OFFSET -0.000000 11.655085 -0.000000
									CHANNELS 3 Zrotation Yrotation Xrotation
									End Site
									{
										OFFSET 0.000000 0.000000 0.000000
									}
								}
							}
						}
					}
					JOINT RightShoulder
					{
						OFFSET -2.625389 11.175210 -0.000000
						CHANNELS 3 Zrotation Yrotation Xrotation
						JOINT RightArm
						{
							OFFSET 0.000000 10.434715 0.000000
							CHANNELS 3 Zrotation Yrotation Xrotation
							JOINT RightForeArm
							{
								OFFSET 0.000000 29.628420 0.000000
								CHANNELS 3 Zrotation Yrotation Xrotation
								JOINT RightHand
								{
									OFFSET 0.000000 22.857611 -0.000000
									CHANNELS 3 Zrotation Yrotation Xrotation
									JOINT RightHandThumb1
									{
										OFFSET -2.867323 3.959563 2.944291
										CHANNELS 3 Zrotation Yrotation Xrotation
										JOINT RightHandThumb2
										{
											OFFSET 0.000000 3.350399 -0.000000
											CHANNELS 3 Zrotation Yrotation Xrotation
											JOINT RightHandThumb3
											{
												OFFSET 0.000000 3.756509 -0.000000
												CHANNELS 3 Zrotation Yrotation Xrotation
												JOINT RightHandThumb4
												{
													OFFSET -0.000000 3.147345 -0.000000
													CHANNELS 3 Zrotation Yrotation Xrotation
													End Site
													{
														OFFSET 0.000000 0.000000 0.000000
													}
												}
											}
										}
									}
									JOINT RightHandIndex1
									{
										OFFSET -0.086752 10.030893 2.345280
										CHANNELS 3 Zrotation Yrotation Xrotation
										JOINT RightHandIndex2
										{
											OFFSET -0.000000 4.061090 -0.000000
											CHANNELS 3 Zrotation Yrotation Xrotation
											JOINT RightHandIndex3
											{
												OFFSET -0.000000 3.248873 0.000000
												CHANNELS 3 Zrotation Yrotation Xrotation
												JOINT RightHandIndex4
												{
													OFFSET -0.000000 2.639709 0.000000
													CHANNELS 3 Zrotation Yrotation Xrotation
													End Site
													{
														OFFSET 0.000000 0.000000 0.000000
													}
												}
											}
										}
									}
									JOINT RightHandMiddle1
									{
										OFFSET 0.104102 9.502952 0.006768
										CHANNELS 3 Zrotation Yrotation Xrotation
										JOINT RightHandMiddle2
										{
											OFFSET 0.000000 4.568727 -0.000000
											CHANNELS 3 Zrotation Yrotation Xrotation
											JOINT RightHandMiddle3
											{
												OFFSET 0.000000 3.654981 -0.000000
												CHANNELS 3 Zrotation Yrotation Xrotation
												JOINT RightHandMiddle4
												{
													OFFSET 0.000000 2.741236 0.000000
													CHANNELS 3 Zrotation Yrotation Xrotation
													End Site
													{
														OFFSET 0.000000 0.000000 0.000000
													}
												}
											}
										}
									}
									JOINT RightHandRing1
									{
										OFFSET 0.086752 8.921708 -2.267442
										CHANNELS 3 Zrotation Yrotation Xrotation
										JOINT RightHandRing2
										{
											OFFSET -0.000000 4.061090 -0.000000
											CHANNELS 3 Zrotation Yrotation Xrotation
											JOINT RightHandRing3
											{
												OFFSET -0.000000 3.654981 0.000000
												CHANNELS 3 Zrotation Yrotation Xrotation
												JOINT RightHandRing4
												{
													OFFSET -0.000000 2.741236 0.000000
													CHANNELS 3 Zrotation Yrotation Xrotation
													End Site
													{
														OFFSET 0.000000 0.000000 0.000000
													}
												}
											}
										}
									}
									JOINT RightHandPinky1
									{
										OFFSET -0.173504 7.976997 -4.467199
										CHANNELS 3 Zrotation Yrotation Xrotation
										JOINT RightHandPinky2
										{
											OFFSET -0.000000 3.350399 -0.000000
											CHANNELS 3 Zrotation Yrotation Xrotation
											JOINT RightHandPinky3
											{
												OFFSET -0.000000 2.842763 0.000000
												CHANNELS 3 Zrotation Yrotation Xrotation
												JOINT RightHandPinky4
												{
													OFFSET 0.000000 2.639709 -0.000000
													CHANNELS 3 Zrotation Yrotation Xrotation
													End Site
													{
														OFFSET 0.000000 0.000000 0.000000
													}
												}
											}
										}
									}
									JOINT RightForeArmEnd
									{
										OFFSET 0.000000 0.000000 0.000000
										CHANNELS 3 Zrotation Yrotation Xrotation
										End Site
										{
											OFFSET 0.000000 0.000000 0.000000
										}
									}
								}
								JOINT RightArmEnd
								{
									OFFSET 0.000000 0.000000 0.000000
									CHANNELS 3 Zrotation Yrotation Xrotation
									End Site
									{
										OFFSET 0.000000 0.000000 0.000000
									}
								}
							}
						}
					}
					JOINT LeftShoulder
					{
						OFFSET 2.625389 11.175210 -0.000000
						CHANNELS 3 Zrotation Yrotation Xrotation
						JOINT LeftArm
						{
							OFFSET 0.000000 10.813635 0.000000
							CHANNELS 3 Zrotation Yrotation Xrotation
							JOINT LeftForeArm
							{
								OFFSET -0.000000 28.724781 -0.000000
								CHANNELS 3 Zrotation Yrotation Xrotation
								JOINT LeftHand
								{
									OFFSET 0.644384 25.716167 -0.328871
									CHANNELS 3 Zrotation Yrotation Xrotation
									JOINT LeftHandThumb1
									{
										OFFSET 2.867323 3.959563 2.944291
										CHANNELS 3 Zrotation Yrotation Xrotation
										JOINT LeftHandThumb2
										{
											OFFSET 0.000000 3.350399 0.000000
											CHANNELS 3 Zrotation Yrotation Xrotation
											JOINT LeftHandThumb3
											{
												OFFSET 0.000000 3.756509 0.000000
												CHANNELS 3 Zrotation Yrotation Xrotation
												JOINT LeftHandThumb4
												{
													OFFSET -0.000000 3.100000 0.000000
													CHANNELS 3 Zrotation Yrotation Xrotation
													End Site
													{
														OFFSET 0.000000 0.000000 0.000000
													}
												}
											}
										}
									}
									JOINT LeftHandIndex1
									{
										OFFSET 0.086752 10.030893 2.345280
										CHANNELS 3 Zrotation Yrotation Xrotation
										JOINT LeftHandIndex2
										{
											OFFSET -0.000000 4.061090 -0.000000
											CHANNELS 3 Zrotation Yrotation Xrotation
											JOINT LeftHandIndex3
											{
												OFFSET -0.000000 3.248873 -0.000000
												CHANNELS 3 Zrotation Yrotation Xrotation
												JOINT LeftHandIndex4
												{
													OFFSET -0.000000 2.639709 -0.000000
													CHANNELS 3 Zrotation Yrotation Xrotation
													End Site
													{
														OFFSET 0.000000 0.000000 0.000000
													}
												}
											}
										}
									}
									JOINT LeftHandMiddle1
									{
										OFFSET -0.104102 9.502952 0.006768
										CHANNELS 3 Zrotation Yrotation Xrotation
										JOINT LeftHandMiddle2
										{
											OFFSET 0.000000 4.568727 -0.000000
											CHANNELS 3 Zrotation Yrotation Xrotation
											JOINT LeftHandMiddle3
											{
												OFFSET 0.000000 3.654981 0.000000
												CHANNELS 3 Zrotation Yrotation Xrotation
												JOINT LeftHandMiddle4
												{
													OFFSET 0.000000 2.741236 0.000000
													CHANNELS 3 Zrotation Yrotation Xrotation
													End Site
													{
														OFFSET 0.000000 0.000000 0.000000
													}
												}
											}
										}
									}
									JOINT LeftHandRing1
									{
										OFFSET -0.086752 8.921708 -2.267442
										CHANNELS 3 Zrotation Yrotation Xrotation
										JOINT LeftHandRing2
										{
											OFFSET -0.000000 4.061090 -0.000000
											CHANNELS 3 Zrotation Yrotation Xrotation
											JOINT LeftHandRing3
											{
												OFFSET 0.000000 3.654981 0.000000
												CHANNELS 3 Zrotation Yrotation Xrotation
												JOINT LeftHandRing4
												{
													OFFSET -0.000000 2.741236 -0.000000
													CHANNELS 3 Zrotation Yrotation Xrotation
													End Site
													{
														OFFSET 0.000000 0.000000 0.000000
													}
												}
											}
										}
									}
									JOINT LeftHandPinky1
									{
										OFFSET 0.173504 7.976997 -4.467199
										CHANNELS 3 Zrotation Yrotation Xrotation
										JOINT LeftHandPinky2
										{
											OFFSET 0.000000 3.350399 -0.000000
											CHANNELS 3 Zrotation Yrotation Xrotation
											JOINT LeftHandPinky3
											{
												OFFSET 0.000000 2.842763 0.000000
												CHANNELS 3 Zrotation Yrotation Xrotation
												JOINT LeftHandPinky4
												{
													OFFSET -0.000000 2.639709 -0.000000
													CHANNELS 3 Zrotation Yrotation Xrotation
													End Site
													{
														OFFSET 0.000000 0.000000 0.000000
													}
												}
											}
										}
									}
									JOINT LeftForeArmEnd
									{
										OFFSET 0.000000 0.000000 0.000000
										CHANNELS 3 Zrotation Yrotation Xrotation
										End Site
										{
											OFFSET 0.000000 0.000000 0.000000
										}
									}
								}
								JOINT LeftArmEnd
								{
									OFFSET 0.000000 0.000000 0.000000
									CHANNELS 3 Zrotation Yrotation Xrotation
									End Site
									{
										OFFSET 0.000000 0.000000 0.000000
									}
								}
							}
						}
					}
				}
			}
		}
	}
	JOINT RightUpLeg
	{
		OFFSET -11.289943 0.000000 -0.000000
		CHANNELS 3 Zrotation Yrotation Xrotation
		JOINT RightLeg
		{
			OFFSET 0.000000 -38.200325 -0.000000
			CHANNELS 3 Zrotation Yrotation Xrotation
			JOINT RightFoot
			{
				OFFSET -0.000000 -39.900856 -0.000000
				CHANNELS 3 Zrotation Yrotation Xrotation
				JOINT RightToeBase
				{
					OFFSET -0.000000 0.000000 15.261641
					CHANNELS 3 Zrotation Yrotation Xrotation
					JOINT RightToeBaseEnd
					{
						OFFSET 0.000000 0.000000 7.370709
						CHANNELS 3 Zrotation Yrotation Xrotation
						End Site
						{
							OFFSET 0.000000 0.000000 0.000000
						}
					}
				}
				JOINT RightLegEnd
				{
					OFFSET 0.000000 0.000000 0.000000
					CHANNELS 3 Zrotation Yrotation Xrotation
					End Site
					{
						OFFSET 0.000000 0.000000 0.000000
					}
				}
			}
			JOINT RightUpLegEnd
			{
				OFFSET 0.000000 0.000000 0.000000
				CHANNELS 3 Zrotation Yrotation Xrotation
				End Site
				{
					OFFSET 0.000000 0.000000 0.000000
				}
			}
		}
	}
	JOINT LeftUpLeg
	{
		OFFSET 11.315661 -0.000000 -0.000000
		CHANNELS 3 Zrotation Yrotation Xrotation
		JOINT LeftLeg
		{
			OFFSET 0.000000 -38.200325 0.000000
			CHANNELS 3 Zrotation Yrotation Xrotation
			JOINT LeftFoot
			{
				OFFSET 0.000000 -39.900856 0.000000
				CHANNELS 3 Zrotation Yrotation Xrotation
				JOINT LeftToeBase
				{
					OFFSET 0.000000 -0.000000 15.261641
					CHANNELS 3 Zrotation Yrotation Xrotation
					JOINT LeftToeBaseEnd
					{
						OFFSET -0.000000 0.000000 7.539996
						CHANNELS 3 Zrotation Yrotation Xrotation
						End Site
						{
							OFFSET 0.000000 0.000000 0.000000
						}
					}
				}
				JOINT LeftLegEnd
				{
					OFFSET 0.000000 0.000000 0.000000
					CHANNELS 3 Zrotation Yrotation Xrotation
					End Site
					{
						OFFSET 0.000000 0.000000 0.000000
					}
				}
			}
			JOINT LeftUpLegEnd
			{
				OFFSET 0.000000 0.000000 0.000000
				CHANNELS 3 Zrotation Yrotation Xrotation
				End Site
				{
					OFFSET 0.000000 0.000000 0.000000
				}
			}
		}
	}
}
MOTION
Frames: 4
Frame Time: 0.016667
0.717293 88.513641 3.606412 -0.807625 -0.145498 -10.211953 2.974575 -0.200603 8.045942 0.343280 -0.161376 3.810282 0.356144 -1.985393 3.162312 -0.570617 -0.651933 1.640799 0.102534 -1.376300 4.726995 -0.786954 -0.955029 -2.695320 -0.607556 -0.996725 -19.207796 0.000000 0.000000 0.000000 90.633385 -0.099940 10.407545 65.336456 -33.843838 4.224480 -0.450088 10.791811 20.358622 7.570276 13.503039 -6.307324 10.937046 -1.865515 39.738762 0.000000 0.000000 -26.639997 0.000000 0.000000 -18.499998 0.000000 0.000000 0.000000 13.612741 0.000000 -9.950699 9.528920 0.000000 0.000000 9.528920 0.000000 0.000000 0.000000 0.000000 0.000000 12.607718 -0.000000 -10.819229 8.825400 0.000000 0.000000 8.825400 0.000000 0.000000 0.000000 0.000000 0.000000 14.150433 -0.000000 -9.929859 9.905301 0.000000 0.000000 9.905301 0.000000 0.000000 0.000000 0.000000 0.000000 14.986264 0.000000 -10.561732 10.490384 0.000000 0.000000 10.490384 0.000000 0.000000 0.000000 0.000000 0.000000 0.000000 0.000000 0.000000 0.000000 0.000000 0.000000 -87.418159 -0.270548 6.233880 -75.998817 26.272923 -6.204398 -0.339548 -5.544444 38.662571 0.678041 -17.794977 -13.609646 -10.637670 1.840800 39.870983 0.000000 0.000000 -25.919998 0.000000 0.000000 -18.000004 0.000000 0.000000 0.000000 -12.784686 -0.000000 -9.414296 -8.949280 0.000000 0.000000 -8.949280 0.000000 0.000000 0.000000 0.000000 0.000000 -12.048728 -0.000000 -10.392732 -8.434110 0.000000 0.000000 -8.434110 0.000000 0.000000 0.000000 0.000000 0.000000 -13.654737 -0.000000 -11.575627 -9.558316 0.000000 0.000000 -9.558316 0.000000 0.000000 0.000000 0.000000 0.000000 -14.250447 -0.000000 -12.885098 -9.975311 0.000000 0.000000 -9.975311 0.000000 0.000000 0.000000 0.000000 0.000000 0.000000 0.000000 0.000000 0.000000 0.000000 0.000000 1.136141 -14.518364 12.126021 -0.031131 -0.345450 4.775295 -3.873879 -13.260001 19.727701 -0.519588 0.644877 -18.908152 0.000000 0.000000 0.000000 0.000000 0.000000 0.000000 0.000000 0.000000 0.000000 8.610489 -1.127510 2.905101 0.263057 0.928557 15.818080 -1.732145 6.252617 17.146843 1.232856 -0.489963 -24.107113 0.000000 0.000000 0.000000 0.000000 0.000000 0.000000 0.000000 0.000000 0.000000 
0.708449 87.919060 3.350153 -1.275866 -0.327765 -9.599586 3.513971 -0.720567 6.983941 1.349107 -0.521492 4.813909 -0.480310 -1.480386 2.445399 -1.165466 -0.578649 3.795933 -0.349566 -0.446975 3.831733 -0.791595 -0.681227 -3.664860 -0.749483 -0.871831 -18.195963 0.000000 0.000000 0.000000 89.896477 -0.217643 9.713096 65.309692 -31.967476 5.794307 -0.152152 12.983164 20.703690 7.691609 11.505120 -4.893117 10.813824 -1.879317 39.656727 -0.000001 0.000031 -26.435804 0.000006 0.000043 -18.080189 0.000008 -0.000004 -0.000024 13.168674 0.023715 -10.006699 9.117476 -0.044620 0.025141 9.135492 -0.018054 0.006547 -0.000030 0.000047 -0.000034 12.659152 0.016024 -10.980896 8.562753 -0.020571 -0.003084 8.650414 -0.002380 -0.003856 0.000027 0.000008 0.000007 14.846486 -0.061503 -10.552170 9.710538 0.023230 0.066476 9.693639 -0.006845 0.042833 -0.000018 0.000393 0.000022 15.469324 -0.151626 -11.545248 10.380250 0.016356 0.403459 10.189181 -0.041373 0.324441 0.000353 -0.000005 0.000009 0.000000 0.000000 0.000000 0.000000 0.000000 0.000000 -87.087433 -0.212836 6.880199 -74.512787 25.825718 -5.374933 -0.516736 -9.022927 39.825157 1.454697 -15.329136 -14.070728 -10.395922 1.814871 39.814323 -0.000007 0.000026 -25.530315 -0.000055 -0.000025 -17.579880 -0.000572 -0.000007 0.000356 -12.993385 0.116146 -9.391640 -8.964025 -0.029486 0.043279 -9.181542 -0.003024 0.035146 0.000010 -0.000077 -0.000014 -12.202522 0.048463 -10.309674 -8.662139 -0.022647 0.023222 -8.431664 0.001451 0.026252 -0.000189 -0.000029 -0.000086 -13.672898 -0.016610 -10.940763 -9.696144 0.038642 -0.099995 -9.563601 0.000387 -0.060279 0.000485 0.000009 0.000004 -13.650586 -0.100025 -11.938621 -10.057436 0.039195 -0.251946 -10.066883 -0.025717 -0.223318 0.000069 -0.000013 -0.000031 0.000000 0.000000 0.000000 0.000000 0.000000 0.000000 1.801003 -14.782827 11.550680 0.016937 -0.422037 4.959773 -5.155467 -13.615254 20.194466 -0.767893 0.553673 -18.846113 0.000000 0.000000 0.000000 0.000000 0.000000 0.000000 0.000000 0.000000 0.000000 8.366749 -0.421928 3.744650 0.285124 0.915437 14.816575 -3.151307 6.004413 21.876209 0.810877 -0.450787 -22.984865 0.000000 0.000000 0.000000 0.000000 0.000000 0.000000 0.000000 0.000000 0.000000 
0.627103 87.893715 3.300978 -1.240566 -0.148577 -9.663673 3.515589 -0.718693 6.941013 1.335216 -0.515137 4.898642 -0.532653 -1.467998 2.406679 -1.138387 -0.583759 3.947052 -0.259586 -0.536003 3.889850 -0.799913 -0.745211 -3.579914 -0.755912 -0.868535 -18.242149 0.000000 0.000000 0.000000 89.971474 -0.239321 9.718973 65.167542 -31.726097 5.836483 -0.171323 13.076097 20.877729 7.805898 11.498068 -5.121676 10.788406 -1.878451 39.672165 -0.000009 0.000053 -26.336893 0.000019 0.000036 -18.017019 0.000020 0.000005 -0.000042 13.072482 0.026612 -9.830606 8.993572 -0.046829 0.027474 8.982994 -0.019260 0.009927 -0.000010 0.000061 -0.000025 12.543893 0.016310 -10.849361 8.453169 -0.022127 -0.000986 8.531743 -0.003006 -0.002669 0.000021 -0.000010 -0.000009 14.706360 -0.063930 -10.457123 9.602276 0.024800 0.057787 9.594822 -0.005116 0.036314 -0.000025 0.000348 0.000002 15.340990 -0.157067 -11.466481 10.323825 0.022911 0.378016 10.127202 -0.037420 0.308279 0.000385 0.000006 0.000014 0.000000 0.000000 0.000000 0.000000 0.000000 0.000000 -87.056442 -0.219971 6.801890 -74.493073 25.697336 -5.228971 -0.513402 -9.069020 39.944088 1.261579 -15.085268 -14.124278 -10.340886 1.802119 39.840809 0.000013 0.000028 -25.410233 -0.000053 -0.000011 -17.494179 -0.000683 0.000005 0.000247 -12.718966 0.122221 -9.368162 -8.862710 -0.029719 0.043360 -9.071157 -0.003156 0.031872 0.000023 -0.000037 -0.000005 -11.906179 0.050606 -10.327857 -8.586352 -0.023007 0.020492 -8.358870 0.001425 0.025963 -0.000284 -0.000019 -0.000105 -13.401595 -0.016455 -11.038393 -9.628507 0.038708 -0.098921 -9.498832 0.000501 -0.059198 0.000519 0.000015 0.000010 -13.422635 -0.101113 -12.074804 -10.021920 0.037771 -0.248331 -10.052498 -0.026611 -0.219714 0.000076 0.000010 -0.000052 0.000000 0.000000 0.000000 0.000000 0.000000 0.000000 1.815710 -14.992756 11.509147 0.016138 -0.411357 4.945460 -5.308432 -13.602947 20.156710 -0.748814 0.534503 -18.865316 0.000000 0.000000 0.000000 0.000000 0.000000 0.000000 0.000000 0.000000 0.000000 8.514456 -0.423804 3.557454 0.292553 0.932345 14.880013 -3.255503 5.760535 21.957087 0.825784 -0.466159 -23.076429 0.000000 0.000000 0.000000 0.000000 0.000000 0.000000 0.000000 0.000000 0.000000 
0.564149 87.877213 3.259990 -1.180288 0.022166 -9.714514 3.502622 -0.705976 6.922807 1.337201 -0.512901 4.904222 -0.599216 -1.405898 2.438770 -1.120021 -0.574882 4.037266 -0.230729 -0.581948 3.895652 -0.811497 -0.798744 -3.527626 -0.748786 -0.861838 -18.301641 0.000000 0.000000 0.000000 90.000885 -0.235470 9.768231 65.246796 -31.314791 5.688446 -0.195160 13.270390 21.305151 7.647607 11.460463 -5.276369 10.771596 -1.878948 39.681698 -0.000009 0.000052 -26.268957 0.000019 0.000038 -17.973953 0.000020 0.000005 -0.000042 12.948210 0.027580 -9.695466 8.880733 -0.048146 0.027760 8.844084 -0.019508 0.010761 -0.000011 0.000061 -0.000025 12.414705 0.015669 -10.764047 8.357426 -0.022788 -0.000200 8.433706 -0.003300 -0.002479 0.000021 -0.000007 -0.000008 14.585626 -0.064966 -10.430936 9.508812 0.025124 0.052234 9.508486 -0.004308 0.032201 -0.000023 0.000388 0.000002 15.221885 -0.157595 -11.485290 10.263529 0.026030 0.365054 10.067094 -0.037011 0.299601 0.000425 0.000006 0.000008 0.000000 0.000000 0.000000 0.000000 0.000000 0.000000 -86.987823 -0.218663 6.757001 -74.480354 25.548450 -5.104383 -0.501991 -9.124117 40.109509 1.263211 -14.848781 -14.062668 -10.303949 1.795495 39.857372 0.000014 0.000028 -25.337925 -0.000050 -0.000012 -17.438765 -0.000718 0.000004 0.000211 -12.517138 0.123454 -9.249420 -8.760321 -0.030149 0.042149 -8.960022 -0.003550 0.028303 0.000020 0.000015 -0.000005 -11.694927 0.050951 -10.257318 -8.506635 -0.023644 0.017653 -8.283414 0.001236 0.025306 -0.000372 -0.000019 -0.000116 -13.206066 -0.014779 -11.054521 -9.555092 0.039021 -0.097108 -9.434591 0.000573 -0.057296 0.000539 0.000014 0.000010 -13.269209 -0.101372 -12.145632 -9.971628 0.037283 -0.243254 -10.017815 -0.027398 -0.212319 0.000056 0.000010 -0.000052 0.000000 0.000000 0.000000 0.000000 0.000000 0.000000 1.794859 -15.157172 11.483513 0.016553 -0.402005 4.933939 -5.436355 -13.627084 20.128792 -0.739629 0.518238 -18.874249 0.000000 0.000000 0.000000 0.000000 0.000000 0.000000 0.000000 0.000000 0.000000 8.580309 -0.457912 3.437593 0.296795 0.943155 14.887609 -3.330825 5.572134 22.024004 0.836298 -0.479285 -23.144909 0.000000 0.000000 0.000000 0.000000 0.000000 0.000000 0.000000 0.000000 0.000000 
